<svg width="186" height="36" viewBox="0 0 186 36" fill="none" xmlns="http://www.w3.org/2000/svg">
    <path
        d="M18.327 35.8554C14.8207 35.8554 11.6734 35.1057 8.88523 33.6062C6.09706 32.1062 3.91902 30.0216 2.35112 27.3524C0.783705 24.6827 0 21.6536 0 18.2651C0 14.8067 0.7979 11.6832 2.3937 8.89458C3.9895 6.10592 6.18597 3.92645 8.9831 2.35617C11.7807 0.785394 14.8994 0 18.339 0C21.6217 0 24.6174 0.721136 27.3258 2.1634C30.0343 3.60517 32.2104 5.6127 33.854 8.18599C35.4976 10.7588 36.415 13.6714 36.6063 16.9239H27.2765C27.0853 15.3572 26.5874 13.9724 25.7831 12.7696C24.9787 11.5668 23.9335 10.6343 22.6475 9.97214C21.362 9.30949 19.9218 8.97816 18.327 8.97816C16.5659 8.97816 14.9995 9.37048 13.6278 10.1551C12.2566 10.9393 11.1833 12.0359 10.4078 13.445C9.63282 14.8537 9.24533 16.449 9.24533 18.2312C9.24533 19.9621 9.63282 21.5075 10.4078 22.8675C11.1833 24.2274 12.2566 25.2864 13.6278 26.0444C14.9995 26.802 16.5659 27.1807 18.327 27.1807H18.5437V35.8554H18.327Z"
        fill="#FA280A" />
    <path
        d="M27.3807 19.5L28.1708 21.5297C28.8684 23.3229 30.2663 24.7411 32.0311 25.4465L34.0407 26.25L32.0311 27.0535C30.2663 27.7587 28.8684 29.1771 28.1708 30.9703L27.3807 33L26.5911 30.9703C25.8932 29.1771 24.4951 27.7587 22.7308 27.0535L20.7207 26.25L22.7308 25.4465C24.4951 24.7411 25.8932 23.3229 26.5911 21.5297L27.3807 19.5Z"
        fill="url(#paint0_linear_2202_564)" />
    <mask id="mask0_2202_564" style="mask-type:luminance" maskUnits="userSpaceOnUse" x="12" y="16" width="12"
        height="5">
        <path d="M23.6368 16.1465H12.8672V20.4936H23.6368V16.1465Z" fill="white" />
    </mask>
    <g mask="url(#mask0_2202_564)">
        <path fill-rule="evenodd" clip-rule="evenodd"
            d="M17.0708 18.3809C17.1865 18.3809 17.2802 18.475 17.2802 18.5911C17.2802 19.1718 17.7491 19.6426 18.3275 19.6426C18.9059 19.6426 19.3748 19.1718 19.3748 18.5911C19.3748 18.475 19.4686 18.3809 19.5843 18.3809C19.7 18.3809 19.7937 18.475 19.7937 18.5911C19.7937 19.4041 19.1373 20.0632 18.3275 20.0632C17.5178 20.0632 16.8613 19.4041 16.8613 18.5911C16.8613 18.475 16.9551 18.3809 17.0708 18.3809Z"
            fill="#FA280A" />
        <path
            d="M14.5571 16.1465L14.6968 16.5022C14.8203 16.8164 15.0676 17.0649 15.3798 17.1885L15.7353 17.3293L15.3798 17.4701C15.0676 17.5937 14.8203 17.8423 14.6968 18.1565L14.5571 18.5122L14.4174 18.1565C14.2939 17.8423 14.0466 17.5937 13.7345 17.4701L13.3789 17.3293L13.7345 17.1885C14.0466 17.0649 14.2939 16.8164 14.4174 16.5022L14.5571 16.1465Z"
            fill="#FA280A" />
        <path
            d="M22.0981 16.1465L22.2379 16.5022C22.3613 16.8164 22.6086 17.0649 22.9208 17.1885L23.2763 17.3293L22.9208 17.4701C22.6086 17.5937 22.3613 17.8423 22.2379 18.1565L22.0981 18.5122L21.9584 18.1565C21.835 17.8423 21.5876 17.5937 21.2755 17.4701L20.9199 17.3293L21.2755 17.1885C21.5876 17.0649 21.835 16.8164 21.9584 16.5022L22.0981 16.1465Z"
            fill="#FA280A" />
    </g>
    <path
        d="M43 21.5053C43 19.6889 43.3959 18.0689 44.1877 16.6454C44.9795 15.2214 46.1228 14.1427 47.6178 13.409C49.1131 12.6753 50.868 12.3993 52.8827 12.5809V17.7123C52.013 17.6606 51.2341 17.8184 50.5461 18.1857C49.8581 18.5528 49.32 19.0784 48.9317 19.7628C48.5434 20.4469 48.3492 21.2222 48.3492 22.0889V30.1532H43V21.5053Z"
        fill="black" />
    <path
        d="M66.6456 17.1835H64.4828C63.35 17.1835 62.4083 17.3343 61.6579 17.6358C60.9075 17.937 60.3392 18.4056 59.953 19.0418C59.5667 19.6776 59.3736 20.4807 59.3736 21.4511C59.3736 22.3333 59.5171 23.0556 59.804 23.618C60.0909 24.1804 60.5102 24.6087 61.062 24.903C61.6138 25.197 62.32 25.3917 63.1808 25.4871C63.6367 25.524 64.0707 25.5424 64.4828 25.5424H73.2228V30.1517H64.3395C62.3973 30.1517 60.6923 29.7768 59.2246 29.0269C57.7569 28.277 56.622 27.2498 55.8199 25.9451C55.0181 24.6401 54.6172 23.1677 54.6172 21.5281C54.6172 19.8668 55.0181 18.3524 55.8199 16.985C56.622 15.6176 57.7605 14.5407 59.2355 13.7543C60.7104 12.9676 62.4118 12.5742 64.3395 12.5742H66.6456V17.1835ZM58.1264 19.2454H66.6456V23.4582H58.1264V19.2454ZM66.5685 19.2454H67.1753C67.6608 19.2454 67.9974 19.0709 68.185 18.7218C68.3726 18.3727 68.3726 18.0292 68.185 17.6911C67.9974 17.3527 67.6608 17.1835 67.1753 17.1835H66.5685V12.5742H67.5394C69.9379 12.5742 71.6117 13.484 72.5607 15.3035C73.5097 17.123 73.4913 18.937 72.5053 20.7455C71.5198 22.554 69.7946 23.4582 67.3299 23.4582H66.5685V19.2454Z"
        fill="black" />
    <path
        d="M74.7461 12.5803H85.0442V16.7192H74.7461V12.5803ZM85.085 30.3708H84.5631C82.9571 30.3708 81.6072 30.073 80.5133 29.4776C79.4194 28.8821 78.5959 28.0723 78.0427 27.0481C77.4899 26.0236 77.2135 24.6941 77.2135 23.0596V5.93652H82.5633V22.3199C82.5633 22.9919 82.6376 23.5285 82.7862 23.9296C82.9349 24.3304 83.1633 24.6488 83.4716 24.8848C83.7799 25.1209 84.1762 25.2389 84.6603 25.2389H85.085V30.3708ZM75.2779 12.5803C75.5893 12.5803 75.8667 12.5347 76.1102 12.4434C76.3536 12.3517 76.5371 12.2442 76.6606 12.1208C76.8754 11.9013 77.0213 11.627 77.0982 11.2979C77.1751 10.9685 77.2135 10.5215 77.2135 9.95704V12.5803H75.2779Z"
        fill="black" />
    <path
        d="M88.2422 21.5053C88.2422 19.6889 88.6381 18.0689 89.4299 16.6454C90.2217 15.2214 91.365 14.1427 92.86 13.409C94.3553 12.6753 96.1102 12.3993 98.1249 12.5809V17.7123C97.2551 17.6606 96.4763 17.8184 95.7883 18.1857C95.1003 18.5528 94.5622 19.0784 94.1739 19.7628C93.7856 20.4469 93.5914 21.2222 93.5914 22.0889V30.1532H88.2422V21.5053Z"
        fill="black" />
    <path
        d="M109.23 30.5495C107.449 30.5495 105.837 30.1552 104.394 29.3668C102.95 28.5783 101.821 27.4873 101.007 26.0937C100.194 24.6998 99.7871 23.1329 99.7871 21.3929C99.7871 19.6506 100.194 18.0775 101.008 16.6736C101.823 15.2693 102.951 14.1697 104.394 13.3747C105.837 12.5793 107.449 12.1816 109.23 12.1816C111.015 12.1816 112.631 12.5776 114.078 13.3695C115.524 14.1611 116.657 15.2583 117.476 16.6612C118.295 18.0637 118.705 19.641 118.705 21.3929C118.705 23.1184 118.294 24.6795 117.471 26.0761C116.648 27.4728 115.514 28.5676 114.069 29.3606C112.623 30.1532 111.01 30.5495 109.23 30.5495ZM109.237 25.6714C110.049 25.6714 110.786 25.4857 111.449 25.1142C112.112 24.7427 112.63 24.2308 113.003 23.5784C113.376 22.9261 113.563 22.1921 113.563 21.3764C113.563 20.5445 113.377 19.8002 113.006 19.1434C112.635 18.4865 112.119 17.975 111.46 17.6087C110.801 17.2423 110.058 17.0592 109.233 17.0592C108.402 17.0592 107.66 17.2408 107.007 17.604C106.354 17.9672 105.846 18.4769 105.482 19.133C105.119 19.7888 104.937 20.5375 104.937 21.379C104.937 22.1947 105.118 22.9273 105.481 23.5769C105.844 24.2261 106.352 24.7375 107.006 25.1111C107.66 25.4846 108.404 25.6714 109.237 25.6714Z"
        fill="black" />
    <path
        d="M132.393 29.7314C130.042 30.38 128.069 30.4199 126.474 29.8513C124.879 29.2824 123.707 28.3709 122.959 27.1169C122.212 25.8629 121.838 24.4691 121.838 22.9356V5.93555H127.187V22.2373C127.187 23.5165 127.527 24.3945 128.208 24.8715C128.888 25.348 129.709 25.5021 130.672 25.3336L132.393 29.7314Z"
        fill="black" />
    <path
        d="M134.534 15.3438H139.883V30.1527H134.534V15.3438ZM137.215 12.8782C136.5 12.8782 135.848 12.7147 135.259 12.3876C134.67 12.0606 134.206 11.6128 133.866 11.0442C133.525 10.4752 133.355 9.84633 133.355 9.15746C133.355 8.49065 133.525 7.87277 133.866 7.30383C134.206 6.73489 134.67 6.2838 135.259 5.95056C135.848 5.61698 136.5 5.4502 137.215 5.4502C137.909 5.4502 138.55 5.61698 139.138 5.95056C139.727 6.2838 140.192 6.73489 140.532 7.30383C140.872 7.87277 141.042 8.49065 141.042 9.15746C141.042 9.84633 140.872 10.4752 140.532 11.0442C140.192 11.6128 139.727 12.0606 139.138 12.3876C138.55 12.7147 137.909 12.8782 137.215 12.8782Z"
        fill="black" />
    <path
        d="M151.717 30.1521C150.03 30.1521 148.501 29.8184 147.128 29.1509C145.755 28.4834 144.644 27.4897 143.796 26.1699C142.949 24.8497 142.475 23.2419 142.375 21.3466H148.114C148.269 22.5206 148.664 23.4297 149.3 24.0738C149.936 24.7179 150.748 25.0399 151.736 25.0399C152.733 25.0399 153.554 24.7179 154.2 24.0738C154.845 23.4297 155.236 22.5206 155.372 21.3466H161.111C161.02 23.2419 160.55 24.8474 159.7 26.1631C158.851 27.4785 157.734 28.4722 156.349 29.1441C154.965 29.8161 153.421 30.1521 151.717 30.1521ZM164.714 12.5405C166.418 12.5405 167.963 12.8767 169.347 13.549C170.731 14.221 171.847 15.2147 172.697 16.53C173.547 17.8454 174.017 19.4509 174.108 21.3466H168.369C168.233 20.1725 167.842 19.2634 167.197 18.6194C166.552 17.975 165.73 17.6528 164.734 17.6528C163.746 17.6528 162.933 17.975 162.297 18.6194C161.661 19.2634 161.265 20.1725 161.111 21.3466H155.372C155.472 19.4509 155.946 17.8431 156.794 16.5233C157.641 15.2031 158.752 14.2093 160.125 13.5418C161.498 12.8743 163.028 12.5405 164.714 12.5405Z"
        fill="black" />
    <path
        d="M175.666 12.5803H185.964V16.7192H175.666V12.5803ZM186.005 30.3708H185.483C183.877 30.3708 182.527 30.073 181.433 29.4776C180.339 28.8821 179.516 28.0723 178.963 27.0481C178.41 26.0236 178.133 24.6941 178.133 23.0596V5.93652H183.483V22.3199C183.483 22.9919 183.558 23.5285 183.706 23.9296C183.855 24.3304 184.083 24.6488 184.392 24.8848C184.7 25.1209 185.096 25.2389 185.58 25.2389H186.005V30.3708ZM176.198 12.5803C176.509 12.5803 176.787 12.5347 177.03 12.4434C177.274 12.3517 177.457 12.2442 177.58 12.1208C177.795 11.9013 177.941 11.627 178.018 11.2979C178.095 10.9685 178.133 10.5215 178.133 9.95704V12.5803H176.198Z"
        fill="black" />
    <defs>
        <linearGradient id="paint0_linear_2202_564" x1="23.6807" y1="24" x2="26.9806" y2="30.2437"
            gradientUnits="userSpaceOnUse">
            <stop stop-color="#FC925B" />
            <stop offset="0.239583" stop-color="#E0D5FA" />
            <stop offset="0.494792" stop-color="#44B9ED" />
            <stop offset="0.755208" stop-color="#90B1A9" />
            <stop offset="1" stop-color="#F7949E" />
        </linearGradient>
    </defs>
</svg>