<svg width="353" height="403" viewBox="0 0 353 403" fill="none" xmlns="http://www.w3.org/2000/svg">
    <g opacity="0.15">
        <path
            d="M205.065 401.382C165.831 401.382 130.616 392.989 99.4185 376.202C68.2212 359.411 43.8507 336.075 26.3071 306.195C8.76902 276.309 0 242.4 0 204.467C0 165.753 8.92785 130.787 26.7836 99.5699C44.6393 68.3524 69.2159 43.9545 100.514 26.3761C131.817 8.79205 166.712 0 205.199 0C241.93 0 275.448 8.07271 305.754 24.2181C336.06 40.3579 360.408 62.8311 378.798 91.6377C397.189 120.439 407.455 153.044 409.595 189.454H305.202C303.062 171.915 297.492 156.413 288.492 142.948C279.491 129.484 267.797 119.045 253.407 111.633C239.023 104.215 222.909 100.506 205.065 100.506C185.359 100.506 167.832 104.897 152.484 113.681C137.142 122.459 125.132 134.735 116.455 150.51C107.783 166.279 103.448 184.138 103.448 204.088C103.448 223.465 107.783 240.765 116.455 255.989C125.132 271.212 137.142 283.067 152.484 291.553C167.832 300.033 185.359 304.273 205.065 304.273H207.489V401.382H205.065Z"
            fill="#FF0420" />
        <path
            d="M306.36 218.292L315.2 241.013C323.006 261.087 338.648 276.963 358.394 284.86L380.88 293.854L358.394 302.849C338.648 310.743 323.006 326.622 315.2 346.696L306.36 369.417L297.525 346.696C289.716 326.622 274.072 310.743 254.331 302.849L231.84 293.854L254.331 284.86C274.072 276.963 289.716 261.087 297.525 241.013L306.36 218.292Z"
            fill="url(#paint0_linear_2173_7967)" />
        <mask id="mask0_2173_7967" style="mask-type:luminance" maskUnits="userSpaceOnUse" x="143" y="180" width="122"
            height="50">
            <path d="M264.478 180.748H143.975V229.411H264.478V180.748Z" fill="white" />
        </mask>
        <g mask="url(#mask0_2173_7967)">
            <path fill-rule="evenodd" clip-rule="evenodd"
                d="M191.017 205.763C192.312 205.763 193.361 206.817 193.361 208.117C193.361 214.618 198.607 219.888 205.08 219.888C211.551 219.888 216.798 214.618 216.798 208.117C216.798 206.817 217.847 205.763 219.142 205.763C220.436 205.763 221.485 206.817 221.485 208.117C221.485 217.218 214.14 224.596 205.08 224.596C196.019 224.596 188.674 217.218 188.674 208.117C188.674 206.817 189.723 205.763 191.017 205.763Z"
                fill="#FF0420" />
            <path
                d="M162.892 180.749L164.456 184.731C165.836 188.248 168.604 191.03 172.097 192.414L176.075 193.991L172.097 195.567C168.604 196.95 165.836 199.733 164.456 203.25L162.892 207.232L161.329 203.25C159.947 199.733 157.18 196.95 153.687 195.567L149.709 193.991L153.687 192.414C157.18 191.03 159.947 188.248 161.329 184.731L162.892 180.749Z"
                fill="#FF0420" />
            <path
                d="M247.263 180.75L248.827 184.731C250.208 188.249 252.975 191.031 256.468 192.415L260.446 193.991L256.468 195.567C252.975 196.951 250.208 199.733 248.827 203.251L247.263 207.233L245.7 203.251C244.319 199.733 241.551 196.951 238.059 195.567L234.08 193.991L238.059 192.415C241.551 191.031 244.319 188.249 245.7 184.731L247.263 180.75Z"
                fill="#FF0420" />
        </g>
    </g>
    <defs>
        <linearGradient id="paint0_linear_2173_7967" x1="264.96" y1="268.667" x2="301.91" y2="338.547"
            gradientUnits="userSpaceOnUse">
            <stop stop-color="#FC925B" />
            <stop offset="0.239583" stop-color="#E0D5FA" />
            <stop offset="0.494792" stop-color="#44B9ED" />
            <stop offset="0.755208" stop-color="#90B1A9" />
            <stop offset="1" stop-color="#F7949E" />
        </linearGradient>
    </defs>
</svg>